<svg width="40" height="40" viewBox="0 0 40 40" fill="none" xmlns="http://www.w3.org/2000/svg">
<rect width="40" height="40" rx="20" fill="#A9E4EA" fill-opacity="0.45"/>
<path d="M15.8334 20H24.1667M23.3334 12.5C25.2826 12.5 26.2567 12.5 26.9684 12.9467C27.3397 13.1799 27.6535 13.4938 27.8867 13.865C28.3334 14.5767 28.3334 15.55 28.3334 17.5C28.3334 19.45 28.3334 20.4233 27.8859 21.135C27.6531 21.5058 27.3398 21.8193 26.9692 22.0525C26.2559 22.5 25.2817 22.5 23.3334 22.5H16.6667C14.7176 22.5 13.7434 22.5 13.0317 22.0525C12.6607 21.8198 12.3468 21.5065 12.1134 21.1358C11.6667 20.4225 11.6667 19.4483 11.6667 17.5C11.6667 15.5517 11.6667 14.5767 12.1134 13.865C12.3466 13.4938 12.6605 13.1799 13.0317 12.9467C13.7434 12.5 14.7167 12.5 16.6667 12.5H23.3334Z" stroke="#2F4273" stroke-width="1.25" stroke-linecap="round"/>
<path d="M15 27.5C15.442 27.5 15.866 27.3244 16.1785 27.0118C16.4911 26.6993 16.6667 26.2754 16.6667 25.8333V25M25 27.5C24.558 27.5 24.134 27.3244 23.8215 27.0118C23.5089 26.6993 23.3333 26.2754 23.3333 25.8333V25M20 25V27.5M25.1042 15.8333H25M25.2083 15.8333C25.2083 15.8886 25.1864 15.9416 25.1473 15.9806C25.1082 16.0197 25.0553 16.0417 25 16.0417C24.9447 16.0417 24.8918 16.0197 24.8527 15.9806C24.8136 15.9416 24.7917 15.8886 24.7917 15.8333C24.7917 15.7781 24.8136 15.7251 24.8527 15.686C24.8918 15.6469 24.9447 15.625 25 15.625C25.0553 15.625 25.1082 15.6469 25.1473 15.686C25.1864 15.7251 25.2083 15.7781 25.2083 15.8333Z" stroke="#2F4273" stroke-width="1.25" stroke-linecap="round" stroke-linejoin="round"/>
</svg>
