<svg width="40" height="40" viewBox="0 0 40 40" fill="none" xmlns="http://www.w3.org/2000/svg">
<rect width="40" height="40" rx="20" fill="#A9E4EA" fill-opacity="0.45"/>
<path d="M20 11C15.866 11 12.5 14.366 12.5 18.5C12.5 22.634 15.866 26 20 26C24.134 26 27.5 22.634 27.5 18.5C27.5 14.366 24.134 11 20 11ZM20 12.5C21.5181 12.4981 22.9801 13.0733 24.0899 14.1091C25.1997 15.1449 25.8742 16.5639 25.9767 18.0785C25.5295 17.764 25.0166 17.5555 24.4767 17.4688C24.1514 17.4144 23.8217 17.3908 23.492 17.3983C23.0083 17.405 22.5276 17.4759 22.0625 17.609C21.8548 17.1333 21.4901 16.7434 21.0293 16.5045C20.5685 16.2656 20.0397 16.1921 19.5312 16.2965C19.5252 16.2913 19.514 16.3025 19.508 16.2965C19.0212 15.89 18.503 15.26 18.266 14.633C18.1077 14.2137 18.0725 13.8275 18.1483 13.508C18.2218 13.1945 18.383 12.8983 18.8045 12.617C19.1981 12.5381 19.5986 12.4989 20 12.5ZM16.625 13.5545C16.5819 14.0967 16.6621 14.6416 16.8597 15.1483C17.1512 15.9102 17.607 16.5985 18.1948 17.1642C17.8796 17.5877 17.7233 18.1085 17.7534 18.6356C17.7834 19.1626 17.9978 19.6623 18.359 20.0472C18.239 20.6442 17.9548 21.371 17.5392 21.875C17.252 22.2238 16.9212 22.4578 16.6017 22.5545C16.2822 22.652 15.9515 22.6572 15.4767 22.4142C14.5655 21.362 14 20.006 14 18.5C14 16.4345 15.0462 14.633 16.625 13.5545ZM20 17.75C20.4222 17.75 20.75 18.0785 20.75 18.5C20.75 18.9215 20.4215 19.25 20 19.25C19.5785 19.25 19.25 18.9215 19.25 18.5C19.25 18.0785 19.5785 17.75 20 17.75ZM23.516 18.9222C23.756 18.9132 23.999 18.9305 24.2188 18.9688C24.6582 19.0452 25.0273 19.2058 25.2733 19.4375C25.505 19.6573 25.6572 19.9385 25.6955 20.4222C25.2919 21.6122 24.5253 22.6456 23.5036 23.3771C22.4819 24.1086 21.2566 24.5013 20 24.5C19.0475 24.5 18.1483 24.2825 17.3517 23.8903C17.888 23.6562 18.3327 23.2662 18.6875 22.8358C19.1926 22.2173 19.5603 21.4983 19.766 20.7267C19.8447 20.735 19.9183 20.75 20 20.75C20.9847 20.75 21.8075 20.0907 22.1097 19.2028C22.5605 19.0347 23.0353 18.94 23.516 18.9222ZM19.25 26.75V27.5H14.75V29H25.25V27.5H20.75V26.75H19.25Z" fill="#2F4273"/>
</svg>
