<svg width="40" height="40" viewBox="0 0 40 40" fill="none" xmlns="http://www.w3.org/2000/svg">
<rect width="40" height="40" rx="20" fill="#A9E4EA" fill-opacity="0.45"/>
<path d="M13.3333 18.3334C13.3333 15.1909 13.3333 13.6192 14.3099 12.6434C15.2866 11.6675 16.8574 11.6667 19.9999 11.6667C23.1424 11.6667 24.7141 11.6667 25.6899 12.6434C26.6658 13.62 26.6666 15.1909 26.6666 18.3334V20.8334C26.6666 23.9759 26.6666 25.5475 25.6899 26.5234C24.7133 27.4992 23.1424 27.5 19.9999 27.5C16.8574 27.5 15.2858 27.5 14.3099 26.5234C13.3341 25.5467 13.3333 23.9759 13.3333 20.8334V18.3334Z" stroke="#2F4273" stroke-width="1.25"/>
<path d="M24.1666 27.5V28.3333H23.3333V27.5M16.6666 27.5V28.3333H15.8333V27.5" stroke="#2F4273" stroke-width="1.25" stroke-linejoin="round"/>
<path d="M26.6666 19.5833H13.3333" stroke="#2F4273" stroke-width="1.25"/>
<path d="M24.1665 15.8333V17.5M24.1665 21.6667V23.3333" stroke="#2F4273" stroke-width="1.25" stroke-linecap="round"/>
</svg>
