<svg width="40" height="40" viewBox="0 0 40 40" fill="none" xmlns="http://www.w3.org/2000/svg">
<rect width="40" height="40" rx="20" fill="#A9E4EA" fill-opacity="0.45"/>
<path d="M16.0625 12.875V11.8794C16.0625 11.3769 16.2395 10.9483 16.5935 10.5935C16.9475 10.2395 17.3765 10.0625 17.8805 10.0625H22.1206C22.6231 10.0625 23.0517 10.2395 23.4065 10.5935C23.7605 10.9475 23.9375 11.3765 23.9375 11.8805V12.875H27.1831C27.6856 12.875 28.1142 13.052 28.469 13.406C28.823 13.76 29 14.189 29 14.693V27.3706C29 27.8731 28.823 28.3017 28.469 28.6565C28.115 29.0105 27.6863 29.1875 27.1831 29.1875H12.8169C12.3144 29.1875 11.8857 29.0105 11.531 28.6565C11.177 28.3025 11 27.8739 11 27.3706V14.6919C11 14.1894 11.177 13.7608 11.531 13.406C11.885 13.052 12.314 12.875 12.818 12.875H16.0625ZM12.818 28.0625H27.1831C27.3848 28.0625 27.5506 27.9976 27.6803 27.8679C27.8101 27.7381 27.875 27.5724 27.875 27.3706V17.9375H25.0625V19.625C25.0625 20.1283 24.8855 20.5569 24.5315 20.9109C24.1775 21.2649 23.7485 21.4419 23.2445 21.4419H16.7555C16.2515 21.4419 15.8225 21.2649 15.4685 20.9109C15.1145 20.5569 14.9375 20.1283 14.9375 19.625V17.9375H12.125V27.3706C12.125 27.5724 12.1899 27.7381 12.3196 27.8679C12.4494 27.9976 12.6155 28.0625 12.818 28.0625ZM14.8936 25.9869C14.7211 25.8144 14.6349 25.6119 14.6349 25.3794C14.6349 25.1469 14.7211 24.9447 14.8936 24.773C15.0661 24.6012 15.2682 24.515 15.5 24.5142C15.7317 24.5135 15.9342 24.5997 16.1075 24.773C16.2807 24.9462 16.367 25.1487 16.3662 25.3805C16.3662 25.6122 16.28 25.8144 16.1075 25.9869C15.935 26.1594 15.7325 26.2456 15.5 26.2456C15.2675 26.2456 15.0661 26.1594 14.8936 25.9869ZM19.3925 25.9869C19.22 25.8144 19.1337 25.6119 19.1337 25.3794C19.1337 25.1469 19.22 24.9447 19.3925 24.773C19.565 24.6012 19.7675 24.515 20 24.5142C20.2325 24.5135 20.435 24.5997 20.6075 24.773C20.78 24.9462 20.8662 25.1487 20.8662 25.3805C20.8662 25.6122 20.78 25.8144 20.6075 25.9869C20.435 26.1594 20.2325 26.2456 20 26.2456C19.7675 26.2456 19.565 26.1594 19.3925 25.9869ZM23.8925 25.9869C23.72 25.8144 23.6337 25.6119 23.6337 25.3794C23.6337 25.1469 23.72 24.9447 23.8925 24.773C24.065 24.6012 24.2675 24.515 24.5 24.5142C24.7325 24.5135 24.935 24.5997 25.1075 24.773C25.28 24.9462 25.3662 25.1487 25.3662 25.3805C25.3662 25.6122 25.28 25.8144 25.1075 25.9869C24.935 26.1594 24.7325 26.2456 24.5 26.2456C24.2675 26.2456 24.065 26.1594 23.8925 25.9869ZM16.7544 20.3169H23.2456C23.4473 20.3169 23.6131 20.252 23.7428 20.1223C23.8726 19.9925 23.9375 19.8268 23.9375 19.625V17.9375H16.0625V19.625C16.0625 19.8275 16.1274 19.9933 16.2571 20.1223C16.3869 20.252 16.5519 20.3169 16.7544 20.3169ZM12.125 16.8125H27.875V14.693C27.875 14.4905 27.8101 14.3244 27.6803 14.1946C27.5506 14.0649 27.3848 14 27.1831 14H12.8169C12.6151 14 12.4494 14.0649 12.3196 14.1946C12.1899 14.3244 12.125 14.4905 12.125 14.693V16.8125ZM17.1875 12.875H22.8125V11.8794C22.8125 11.6777 22.7476 11.5119 22.6179 11.3822C22.4881 11.2524 22.3224 11.1875 22.1206 11.1875H17.8794C17.6776 11.1875 17.5119 11.2524 17.3821 11.3822C17.2524 11.5119 17.1875 11.678 17.1875 11.8805V12.875Z" fill="#2F4273"/>
</svg>
