<svg width="40" height="40" viewBox="0 0 40 40" fill="none" xmlns="http://www.w3.org/2000/svg">
<rect width="40" height="40" rx="20" fill="#A9E4EA" fill-opacity="0.45"/>
<path d="M12.5 21.6667V18.3334C12.5 15.1909 12.5 13.6192 13.4767 12.6434C14.4533 11.6675 16.0242 11.6667 19.1667 11.6667H20.8333C23.9758 11.6667 25.5475 11.6667 26.5233 12.6434C27.4992 13.62 27.5 15.1909 27.5 18.3334V21.6667C27.5 24.8092 27.5 26.3809 26.5233 27.3567C25.5467 28.3325 23.9758 28.3334 20.8333 28.3334H19.1667C16.0242 28.3334 14.4525 28.3334 13.4767 27.3567C12.5008 26.38 12.5 24.8092 12.5 21.6667Z" stroke="#2F4273" stroke-width="1.25" stroke-linecap="round" stroke-linejoin="round"/>
<path d="M24.1666 20.8333C24.1666 21.9384 23.7276 22.9982 22.9462 23.7796C22.1648 24.561 21.105 25 19.9999 25C18.8949 25 17.835 24.561 17.0536 23.7796C16.2722 22.9982 15.8333 21.9384 15.8333 20.8333C15.8333 19.7283 16.2722 18.6684 17.0536 17.887C17.835 17.1056 18.8949 16.6667 19.9999 16.6667C21.105 16.6667 22.1648 17.1056 22.9462 17.887C23.7276 18.6684 24.1666 19.7283 24.1666 20.8333Z" stroke="#2F4273" stroke-width="1.25" stroke-linecap="round" stroke-linejoin="round"/>
<path d="M15.8333 20.8333C17.2222 19.7222 18.6111 19.7222 20 20.8333C21.3889 21.9444 22.7778 21.9444 24.1667 20.8333M15.9375 15H15.8333M16.0417 15C16.0417 15.0552 16.0197 15.1082 15.9806 15.1473C15.9416 15.1864 15.8886 15.2083 15.8333 15.2083C15.7781 15.2083 15.7251 15.1864 15.686 15.1473C15.6469 15.1082 15.625 15.0552 15.625 15C15.625 14.9447 15.6469 14.8917 15.686 14.8527C15.7251 14.8136 15.7781 14.7917 15.8333 14.7917C15.8886 14.7917 15.9416 14.8136 15.9806 14.8527C16.0197 14.8917 16.0417 14.9447 16.0417 15Z" stroke="#2F4273" stroke-width="1.25" stroke-linecap="round" stroke-linejoin="round"/>
</svg>
