<svg width="165" height="13" viewBox="0 0 165 13" fill="none" xmlns="http://www.w3.org/2000/svg">
<path d="M-2.21729e-05 0.562489H2.38066L5.22725 5.71022H5.34089L8.18748 0.562489H10.5682L6.33521 7.85794V12.1989H4.23293V7.85794L-2.21729e-05 0.562489ZM14.152 12.3693C13.2997 12.3693 12.5611 12.1818 11.9361 11.8068C11.3111 11.4318 10.8262 10.9072 10.4815 10.2329C10.1406 9.5587 9.97015 8.77082 9.97015 7.86931C9.97015 6.96779 10.1406 6.17802 10.4815 5.49999C10.8262 4.82196 11.3111 4.29544 11.9361 3.92044C12.5611 3.54544 13.2997 3.35794 14.152 3.35794C15.0042 3.35794 15.7429 3.54544 16.3679 3.92044C16.9929 4.29544 17.4758 4.82196 17.8167 5.49999C18.1614 6.17802 18.3338 6.96779 18.3338 7.86931C18.3338 8.77082 18.1614 9.5587 17.8167 10.2329C17.4758 10.9072 16.9929 11.4318 16.3679 11.8068C15.7429 12.1818 15.0042 12.3693 14.152 12.3693ZM14.1633 10.7216C14.6255 10.7216 15.0118 10.5947 15.3224 10.3409C15.633 10.0833 15.8641 9.73863 16.0156 9.30681C16.1709 8.87499 16.2486 8.39393 16.2486 7.86363C16.2486 7.32953 16.1709 6.84658 16.0156 6.41476C15.8641 5.97916 15.633 5.63256 15.3224 5.37499C15.0118 5.11741 14.6255 4.98863 14.1633 4.98863C13.6898 4.98863 13.2959 5.11741 12.9815 5.37499C12.6709 5.63256 12.438 5.97916 12.2826 6.41476C12.1311 6.84658 12.0554 7.32953 12.0554 7.86363C12.0554 8.39393 12.1311 8.87499 12.2826 9.30681C12.438 9.73863 12.6709 10.0833 12.9815 10.3409C13.2959 10.5947 13.6898 10.7216 14.1633 10.7216ZM25.642 8.5284V3.47158H27.6988V12.1989H25.7045V10.6477H25.6136C25.4166 11.1364 25.0928 11.536 24.642 11.8466C24.1951 12.1572 23.6439 12.3125 22.9886 12.3125C22.4166 12.3125 21.911 12.1856 21.4716 11.9318C21.036 11.6742 20.6951 11.3011 20.4488 10.8125C20.2026 10.3201 20.0795 9.72537 20.0795 9.0284V3.47158H22.1363V8.71022C22.1363 9.26325 22.2879 9.70264 22.5909 10.0284C22.8939 10.3542 23.2916 10.517 23.7841 10.517C24.0871 10.517 24.3807 10.4432 24.6648 10.2954C24.9488 10.1477 25.1818 9.92802 25.3636 9.63635C25.5492 9.3409 25.642 8.97158 25.642 8.5284ZM29.8139 12.1989V3.47158H31.8082V4.92613H31.8991C32.0582 4.42234 32.3309 4.03408 32.7173 3.76135C33.1075 3.48484 33.5525 3.34658 34.0525 3.34658C34.1662 3.34658 34.2931 3.35226 34.4332 3.36362C34.5772 3.3712 34.6965 3.38446 34.7912 3.4034V5.29544C34.7041 5.26514 34.5658 5.23862 34.3764 5.2159C34.1908 5.18938 34.0109 5.17613 33.8366 5.17613C33.4616 5.17613 33.1245 5.25756 32.8253 5.42044C32.5298 5.57953 32.2969 5.80113 32.1264 6.08522C31.9559 6.36931 31.8707 6.69696 31.8707 7.06817V12.1989H29.8139ZM46.5412 3.76135C46.4881 3.26514 46.2647 2.87878 45.8707 2.60226C45.4806 2.32575 44.973 2.18749 44.348 2.18749C43.9086 2.18749 43.5317 2.25378 43.2173 2.38635C42.9029 2.51893 42.6624 2.69885 42.4957 2.92612C42.329 3.1534 42.2438 3.41287 42.24 3.70453C42.24 3.94696 42.295 4.15719 42.4048 4.33522C42.5184 4.51325 42.6719 4.66476 42.865 4.78976C43.0582 4.91097 43.2722 5.01325 43.5071 5.09658C43.7419 5.17991 43.9787 5.24999 44.2173 5.30681L45.3082 5.57953C45.7476 5.68181 46.17 5.82006 46.5753 5.99431C46.9844 6.16855 47.3499 6.38825 47.6719 6.6534C47.9976 6.91855 48.2552 7.23863 48.4446 7.61363C48.634 7.98863 48.7287 8.42802 48.7287 8.93181C48.7287 9.61363 48.5544 10.214 48.2059 10.7329C47.8575 11.2481 47.3537 11.6515 46.6946 11.9432C46.0393 12.231 45.2457 12.375 44.3139 12.375C43.4086 12.375 42.6226 12.2348 41.9559 11.9545C41.2931 11.6742 40.7741 11.2651 40.3991 10.7273C40.0279 10.1894 39.8272 9.53408 39.7969 8.76135H41.8707C41.901 9.16666 42.026 9.50378 42.2457 9.77272C42.4654 10.0417 42.7514 10.2424 43.1037 10.375C43.4597 10.5076 43.8575 10.5739 44.2969 10.5739C44.7552 10.5739 45.1567 10.5057 45.5014 10.3693C45.8499 10.2292 46.1226 10.036 46.3196 9.78976C46.5166 9.53976 46.6169 9.24809 46.6207 8.91476C46.6169 8.61173 46.5279 8.36173 46.3537 8.16476C46.1794 7.964 45.9351 7.79734 45.6207 7.66476C45.3101 7.5284 44.9465 7.40719 44.5298 7.30113L43.2059 6.96022C42.2476 6.714 41.49 6.3409 40.9332 5.8409C40.3802 5.33711 40.1037 4.66855 40.1037 3.83522C40.1037 3.14961 40.2893 2.54923 40.6605 2.03408C41.0355 1.51893 41.545 1.11931 42.1889 0.835216C42.8328 0.547337 43.562 0.403398 44.3764 0.403398C45.2022 0.403398 45.9256 0.547337 46.5469 0.835216C47.1719 1.11931 47.6624 1.51514 48.0184 2.02272C48.3745 2.5265 48.5582 3.10605 48.5696 3.76135H46.5412ZM54.3807 12.3693C53.5057 12.3693 52.75 12.1875 52.1136 11.8239C51.481 11.4564 50.9943 10.9375 50.6534 10.267C50.3125 9.59279 50.142 8.79923 50.142 7.88635C50.142 6.98863 50.3125 6.20075 50.6534 5.52272C50.9981 4.8409 51.4791 4.31059 52.0966 3.93181C52.714 3.54923 53.4394 3.35794 54.2727 3.35794C54.8106 3.35794 55.3182 3.44506 55.7954 3.61931C56.2765 3.78976 56.7007 4.05491 57.0682 4.41476C57.4394 4.77461 57.731 5.23294 57.9432 5.78976C58.1553 6.34279 58.2613 7.00188 58.2613 7.76703V8.39772H51.1079V7.01135H56.2898C56.286 6.61741 56.2007 6.26703 56.0341 5.96022C55.8674 5.64961 55.6344 5.40529 55.3352 5.22726C55.0398 5.04923 54.6951 4.96022 54.3011 4.96022C53.8807 4.96022 53.5113 5.06249 53.1932 5.26703C52.875 5.46779 52.6269 5.73294 52.4488 6.06249C52.2746 6.38825 52.1856 6.7462 52.1818 7.13635V8.34658C52.1818 8.85416 52.2746 9.28976 52.4602 9.6534C52.6458 10.0132 52.9053 10.2898 53.2386 10.4829C53.5719 10.6723 53.9621 10.767 54.4091 10.767C54.7083 10.767 54.9791 10.7254 55.2216 10.642C55.464 10.5549 55.6742 10.428 55.8523 10.2614C56.0303 10.0947 56.1648 9.88825 56.2557 9.64203L58.1761 9.85794C58.0549 10.3655 57.8238 10.8087 57.4829 11.1875C57.1458 11.5625 56.714 11.8542 56.1875 12.0625C55.661 12.267 55.0587 12.3693 54.3807 12.3693ZM60.0014 12.1989V3.47158H61.9957V4.92613H62.0866C62.2457 4.42234 62.5184 4.03408 62.9048 3.76135C63.295 3.48484 63.74 3.34658 64.24 3.34658C64.3537 3.34658 64.4806 3.35226 64.6207 3.36362C64.7647 3.3712 64.884 3.38446 64.9787 3.4034V5.29544C64.8916 5.26514 64.7533 5.23862 64.5639 5.2159C64.3783 5.18938 64.1984 5.17613 64.0241 5.17613C63.6491 5.17613 63.312 5.25756 63.0128 5.42044C62.7173 5.57953 62.4844 5.80113 62.3139 6.08522C62.1434 6.36931 62.0582 6.69696 62.0582 7.06817V12.1989H60.0014ZM74.4062 3.47158L71.2983 12.1989H69.0255L65.9176 3.47158H68.1108L70.1165 9.95453H70.2074L72.2187 3.47158H74.4062ZM75.8295 12.1989V3.47158H77.8863V12.1989H75.8295ZM76.8636 2.23294C76.5379 2.23294 76.2576 2.12499 76.0227 1.90908C75.7879 1.68938 75.6704 1.42612 75.6704 1.11931C75.6704 0.808701 75.7879 0.545443 76.0227 0.329534C76.2576 0.109837 76.5379 -1.14441e-05 76.8636 -1.14441e-05C77.1932 -1.14441e-05 77.4735 0.109837 77.7045 0.329534C77.9394 0.545443 78.0568 0.808701 78.0568 1.11931C78.0568 1.42612 77.9394 1.68938 77.7045 1.90908C77.4735 2.12499 77.1932 2.23294 76.8636 2.23294ZM83.8082 12.3693C82.937 12.3693 82.1889 12.178 81.5639 11.7954C80.9427 11.4129 80.4635 10.8845 80.1264 10.2102C79.7931 9.53219 79.6264 8.75188 79.6264 7.86931C79.6264 6.98294 79.7969 6.20075 80.1378 5.52272C80.4787 4.8409 80.9597 4.31059 81.5809 3.93181C82.2059 3.54923 82.9446 3.35794 83.7969 3.35794C84.5052 3.35794 85.1321 3.48863 85.6775 3.74999C86.2268 4.00756 86.6643 4.37309 86.99 4.84658C87.3158 5.31628 87.5014 5.86552 87.5469 6.49431H85.5809C85.5014 6.07385 85.312 5.72347 85.0128 5.44317C84.7173 5.15908 84.3215 5.01703 83.8253 5.01703C83.4048 5.01703 83.0355 5.13067 82.7173 5.35794C82.3991 5.58143 82.151 5.9034 81.973 6.32385C81.7987 6.74431 81.7116 7.24809 81.7116 7.83522C81.7116 8.42991 81.7987 8.94128 81.973 9.36931C82.1472 9.79355 82.3915 10.1212 82.7059 10.3523C83.0241 10.5795 83.3972 10.6932 83.8253 10.6932C84.1283 10.6932 84.3991 10.6364 84.6378 10.5227C84.8802 10.4053 85.0828 10.2367 85.2457 10.017C85.4086 9.79734 85.5203 9.53029 85.5809 9.2159H87.5469C87.4976 9.83332 87.3158 10.3807 87.0014 10.8579C86.687 11.3314 86.259 11.7026 85.7173 11.9716C85.1756 12.2367 84.5393 12.3693 83.8082 12.3693ZM93.0994 12.3693C92.2244 12.3693 91.4687 12.1875 90.8324 11.8239C90.1998 11.4564 89.713 10.9375 89.3721 10.267C89.0312 9.59279 88.8608 8.79923 88.8608 7.88635C88.8608 6.98863 89.0312 6.20075 89.3721 5.52272C89.7168 4.8409 90.1979 4.31059 90.8153 3.93181C91.4327 3.54923 92.1581 3.35794 92.9915 3.35794C93.5293 3.35794 94.0369 3.44506 94.5142 3.61931C94.9952 3.78976 95.4195 4.05491 95.7869 4.41476C96.1581 4.77461 96.4498 5.23294 96.6619 5.78976C96.874 6.34279 96.9801 7.00188 96.9801 7.76703V8.39772H89.8267V7.01135H95.0085C95.0047 6.61741 94.9195 6.26703 94.7528 5.96022C94.5862 5.64961 94.3532 5.40529 94.054 5.22726C93.7585 5.04923 93.4138 4.96022 93.0199 4.96022C92.5994 4.96022 92.2301 5.06249 91.9119 5.26703C91.5937 5.46779 91.3456 5.73294 91.1676 6.06249C90.9933 6.38825 90.9043 6.7462 90.9005 7.13635V8.34658C90.9005 8.85416 90.9933 9.28976 91.179 9.6534C91.3646 10.0132 91.624 10.2898 91.9574 10.4829C92.2907 10.6723 92.6808 10.767 93.1278 10.767C93.4271 10.767 93.6979 10.7254 93.9403 10.642C94.1827 10.5549 94.393 10.428 94.571 10.2614C94.749 10.0947 94.8835 9.88825 94.9744 9.64203L96.8949 9.85794C96.7737 10.3655 96.5426 10.8087 96.2017 11.1875C95.8646 11.5625 95.4327 11.8542 94.9062 12.0625C94.3797 12.267 93.7774 12.3693 93.0994 12.3693ZM109.104 3.76135C109.051 3.26514 108.827 2.87878 108.433 2.60226C108.043 2.32575 107.535 2.18749 106.91 2.18749C106.471 2.18749 106.094 2.25378 105.78 2.38635C105.465 2.51893 105.225 2.69885 105.058 2.92612C104.892 3.1534 104.806 3.41287 104.803 3.70453C104.803 3.94696 104.857 4.15719 104.967 4.33522C105.081 4.51325 105.234 4.66476 105.428 4.78976C105.621 4.91097 105.835 5.01325 106.07 5.09658C106.304 5.17991 106.541 5.24999 106.78 5.30681L107.871 5.57953C108.31 5.68181 108.732 5.82006 109.138 5.99431C109.547 6.16855 109.912 6.38825 110.234 6.6534C110.56 6.91855 110.818 7.23863 111.007 7.61363C111.196 7.98863 111.291 8.42802 111.291 8.93181C111.291 9.61363 111.117 10.214 110.768 10.7329C110.42 11.2481 109.916 11.6515 109.257 11.9432C108.602 12.231 107.808 12.375 106.876 12.375C105.971 12.375 105.185 12.2348 104.518 11.9545C103.856 11.6742 103.337 11.2651 102.962 10.7273C102.59 10.1894 102.39 9.53408 102.359 8.76135H104.433C104.464 9.16666 104.589 9.50378 104.808 9.77272C105.028 10.0417 105.314 10.2424 105.666 10.375C106.022 10.5076 106.42 10.5739 106.859 10.5739C107.318 10.5739 107.719 10.5057 108.064 10.3693C108.412 10.2292 108.685 10.036 108.882 9.78976C109.079 9.53976 109.179 9.24809 109.183 8.91476C109.179 8.61173 109.09 8.36173 108.916 8.16476C108.742 7.964 108.498 7.79734 108.183 7.66476C107.873 7.5284 107.509 7.40719 107.092 7.30113L105.768 6.96022C104.81 6.714 104.053 6.3409 103.496 5.8409C102.943 5.33711 102.666 4.66855 102.666 3.83522C102.666 3.14961 102.852 2.54923 103.223 2.03408C103.598 1.51893 104.107 1.11931 104.751 0.835216C105.395 0.547337 106.125 0.403398 106.939 0.403398C107.765 0.403398 108.488 0.547337 109.109 0.835216C109.734 1.11931 110.225 1.51514 110.581 2.02272C110.937 2.5265 111.121 3.10605 111.132 3.76135H109.104ZM116.886 12.3693C116.034 12.3693 115.295 12.1818 114.67 11.8068C114.045 11.4318 113.561 10.9072 113.216 10.2329C112.875 9.5587 112.705 8.77082 112.705 7.86931C112.705 6.96779 112.875 6.17802 113.216 5.49999C113.561 4.82196 114.045 4.29544 114.67 3.92044C115.295 3.54544 116.034 3.35794 116.886 3.35794C117.739 3.35794 118.477 3.54544 119.102 3.92044C119.727 4.29544 120.21 4.82196 120.551 5.49999C120.896 6.17802 121.068 6.96779 121.068 7.86931C121.068 8.77082 120.896 9.5587 120.551 10.2329C120.21 10.9072 119.727 11.4318 119.102 11.8068C118.477 12.1818 117.739 12.3693 116.886 12.3693ZM116.898 10.7216C117.36 10.7216 117.746 10.5947 118.057 10.3409C118.367 10.0833 118.598 9.73863 118.75 9.30681C118.905 8.87499 118.983 8.39393 118.983 7.86363C118.983 7.32953 118.905 6.84658 118.75 6.41476C118.598 5.97916 118.367 5.63256 118.057 5.37499C117.746 5.11741 117.36 4.98863 116.898 4.98863C116.424 4.98863 116.03 5.11741 115.716 5.37499C115.405 5.63256 115.172 5.97916 115.017 6.41476C114.866 6.84658 114.79 7.32953 114.79 7.86363C114.79 8.39393 114.866 8.87499 115.017 9.30681C115.172 9.73863 115.405 10.0833 115.716 10.3409C116.03 10.5947 116.424 10.7216 116.898 10.7216ZM124.871 0.562489V12.1989H122.814V0.562489H124.871ZM132.548 8.5284V3.47158H134.605V12.1989H132.611V10.6477H132.52C132.323 11.1364 131.999 11.536 131.548 11.8466C131.101 12.1572 130.55 12.3125 129.895 12.3125C129.323 12.3125 128.817 12.1856 128.378 11.9318C127.942 11.6742 127.601 11.3011 127.355 10.8125C127.109 10.3201 126.986 9.72537 126.986 9.0284V3.47158H129.043V8.71022C129.043 9.26325 129.194 9.70264 129.497 10.0284C129.8 10.3542 130.198 10.517 130.69 10.517C130.993 10.517 131.287 10.4432 131.571 10.2954C131.855 10.1477 132.088 9.92802 132.27 9.63635C132.455 9.3409 132.548 8.97158 132.548 8.5284ZM141.078 3.47158V5.06249H136.061V3.47158H141.078ZM137.3 1.38067H139.357V9.57385C139.357 9.85037 139.398 10.0625 139.482 10.2102C139.569 10.3542 139.682 10.4526 139.822 10.5057C139.963 10.5587 140.118 10.5852 140.288 10.5852C140.417 10.5852 140.535 10.5757 140.641 10.5568C140.75 10.5379 140.834 10.5208 140.891 10.5057L141.237 12.1136C141.127 12.1515 140.97 12.1932 140.766 12.2386C140.565 12.2841 140.319 12.3106 140.027 12.3182C139.512 12.3333 139.048 12.2557 138.635 12.0852C138.222 11.911 137.894 11.642 137.652 11.2784C137.413 10.9148 137.296 10.4602 137.3 9.91476V1.38067ZM142.798 12.1989V3.47158H144.855V12.1989H142.798ZM143.832 2.23294C143.507 2.23294 143.226 2.12499 142.991 1.90908C142.757 1.68938 142.639 1.42612 142.639 1.11931C142.639 0.808701 142.757 0.545443 142.991 0.329534C143.226 0.109837 143.507 -1.14441e-05 143.832 -1.14441e-05C144.162 -1.14441e-05 144.442 0.109837 144.673 0.329534C144.908 0.545443 145.026 0.808701 145.026 1.11931C145.026 1.42612 144.908 1.68938 144.673 1.90908C144.442 2.12499 144.162 2.23294 143.832 2.23294ZM150.777 12.3693C149.925 12.3693 149.186 12.1818 148.561 11.8068C147.936 11.4318 147.451 10.9072 147.107 10.2329C146.766 9.5587 146.595 8.77082 146.595 7.86931C146.595 6.96779 146.766 6.17802 147.107 5.49999C147.451 4.82196 147.936 4.29544 148.561 3.92044C149.186 3.54544 149.925 3.35794 150.777 3.35794C151.629 3.35794 152.368 3.54544 152.993 3.92044C153.618 4.29544 154.101 4.82196 154.442 5.49999C154.786 6.17802 154.959 6.96779 154.959 7.86931C154.959 8.77082 154.786 9.5587 154.442 10.2329C154.101 10.9072 153.618 11.4318 152.993 11.8068C152.368 12.1818 151.629 12.3693 150.777 12.3693ZM150.788 10.7216C151.25 10.7216 151.637 10.5947 151.947 10.3409C152.258 10.0833 152.489 9.73863 152.641 9.30681C152.796 8.87499 152.874 8.39393 152.874 7.86363C152.874 7.32953 152.796 6.84658 152.641 6.41476C152.489 5.97916 152.258 5.63256 151.947 5.37499C151.637 5.11741 151.25 4.98863 150.788 4.98863C150.315 4.98863 149.921 5.11741 149.607 5.37499C149.296 5.63256 149.063 5.97916 148.908 6.41476C148.756 6.84658 148.68 7.32953 148.68 7.86363C148.68 8.39393 148.756 8.87499 148.908 9.30681C149.063 9.73863 149.296 10.0833 149.607 10.3409C149.921 10.5947 150.315 10.7216 150.788 10.7216ZM158.761 7.08522V12.1989H156.705V3.47158H158.67V4.95453H158.773C158.973 4.4659 159.294 4.07764 159.733 3.78976C160.176 3.50188 160.723 3.35794 161.375 3.35794C161.977 3.35794 162.502 3.48673 162.949 3.74431C163.4 4.00188 163.748 4.37499 163.994 4.86363C164.244 5.35226 164.367 5.94506 164.364 6.64203V12.1989H162.307V6.96022C162.307 6.37688 162.155 5.92044 161.852 5.5909C161.553 5.26135 161.138 5.09658 160.608 5.09658C160.248 5.09658 159.928 5.17613 159.648 5.33522C159.371 5.49052 159.153 5.7159 158.994 6.01135C158.839 6.30681 158.761 6.66476 158.761 7.08522Z" fill="#1D1D1D"/>
</svg>
